<svg width="512" height="512" viewBox="0 0 512 512" fill="none" xmlns="http://www.w3.org/2000/svg">
<path d="M262.573 152.54C258.218 157.097 253.935 155.798 249.143 158.043C245.136 159.913 242.195 157.258 239.115 155.557C232.501 151.908 234.357 142.523 233.578 136.347C231.776 122.052 220.181 128.625 224.192 139.259C226.621 145.694 232.307 155.142 228.032 161.774C226.737 163.785 225.003 165.423 222.541 165.454C218.656 165.502 214.708 166.223 210.88 164.788C205.419 162.741 200.377 160.247 197.448 154.783C196.518 153.051 194.658 151.807 193.667 150.095C186.407 137.566 185.697 119.856 188.382 106.143C189.808 98.8508 191.441 91.592 193.251 84.3844C194.016 81.3437 196.046 78.8313 197.166 75.9369C198.665 72.106 201.586 64.4162 201.586 64.4162C201.586 64.4162 202.871 59.0452 203.612 56.3864C204.523 53.1161 205.592 49.8025 206.667 46.5803C207.405 44.3684 208.734 35.1609 212.513 37.395C220.967 42.3966 228.239 48.8292 234.994 55.8006C238.909 59.8424 242.8 64.1009 245.707 68.8503C249.195 74.545 253.061 80.2275 256.92 85.6953C258.66 88.1628 259.588 90.8846 260.484 93.7626C261.998 98.6356 264.262 103.289 266.179 108.047C267.104 110.339 268.115 112.618 268.78 114.984C269.94 119.094 233.376 127.791 267.372 119.04C268.613 118.722 269.282 118.961 269.712 120.325C271.496 126.017 271.119 131.628 269.525 137.232C268.082 142.631 266.539 148.391 262.573 152.54Z" fill="#016638"/>
<path d="M198.197 259.734C205.043 259.656 206.884 263.639 212.072 265.498C216.405 267.057 216.176 271.031 216.85 274.434C218.302 281.738 209.083 286.998 204.391 291.894C193.528 303.226 207.05 306.921 213.297 296.577C217.077 290.317 221.172 279.605 229.719 278.013C232.31 277.529 234.886 277.622 236.602 279.365C239.309 282.116 242.629 284.44 244.042 288.193C246.056 293.545 247.407 298.911 244.792 304.849C243.964 306.731 244.188 308.939 243.418 310.852C237.797 324.856 223.294 337.803 209.845 345.509C202.694 349.608 195.429 353.535 188.087 357.3C184.988 358.886 181.468 359.196 178.249 360.425C173.978 362.041 165.465 365.348 165.465 365.348C165.465 365.348 160.037 368.199 157.278 369.535C153.885 371.178 150.347 372.739 146.882 374.231C144.503 375.256 135.798 380.77 135.095 376.491C133.526 366.918 133.98 357.186 135.244 347.447C135.979 341.802 136.913 336.022 138.937 330.602C141.364 324.102 143.52 317.34 145.499 310.733C146.394 307.753 148.061 305.176 149.882 302.512C152.967 298.004 155.352 293.113 158.064 288.397C159.369 286.125 160.604 283.799 162.15 281.661C164.832 277.942 197.288 298.047 166.549 279.821C165.429 279.155 165.172 278.507 166.031 277.241C169.624 271.965 174.632 268.294 180.469 265.501C186.029 262.743 191.963 259.805 198.197 259.734Z" fill="#016638"/>
<path d="M319.9 252.162C318.061 248.052 320.059 245.639 319.859 241.897C319.695 238.771 322.228 237.611 324.17 236.091C328.335 232.828 334.02 236.676 338.295 237.911C348.188 240.769 346.951 231.394 338.88 231.001C333.995 230.764 326.257 231.792 323.031 227.149C322.052 225.743 321.436 224.156 322.072 222.55C323.076 220.016 323.654 217.251 325.62 215.172C328.424 212.206 331.41 209.637 335.789 209.275C337.177 209.16 338.493 208.304 339.884 208.143C350.07 206.962 361.921 211.491 370.235 217.096C374.656 220.075 379.001 223.18 383.264 226.384C385.062 227.738 386.175 229.762 387.782 231.304C389.905 233.356 394.19 237.417 394.19 237.417C394.19 237.417 397.384 239.764 398.937 240.994C400.848 242.506 402.745 244.133 404.58 245.739C405.839 246.841 411.548 250.297 409.069 252.119C403.522 256.195 397.347 259.102 390.955 261.52C387.25 262.922 383.408 264.246 379.505 264.795C374.826 265.453 370.053 266.361 365.424 267.324C363.335 267.758 361.295 267.594 359.161 267.364C355.549 266.974 351.881 267.132 348.236 267.035C346.481 266.989 344.711 267.003 342.976 266.768C339.96 266.363 343.982 240.19 340.68 264.712C340.559 265.607 340.222 265.974 339.21 265.868C334.986 265.422 331.392 263.597 328.127 260.985C324.956 258.527 321.575 255.904 319.9 252.162Z" fill="#016638"/>
<path d="M317.081 203.739C315.075 202.403 315.242 200.606 314.06 198.905C313.074 197.482 313.842 196.101 314.246 194.746C315.112 191.835 318.723 191.784 320.952 190.962C326.112 189.06 322.83 185.039 319.187 187.506C316.982 189 313.901 192.029 311.133 190.896C310.293 190.554 309.56 190.007 309.368 189.039C309.066 187.512 308.51 186.017 308.761 184.388C309.119 182.066 309.672 179.871 311.481 178.261C312.054 177.75 312.378 176.913 312.939 176.38C317.046 172.474 323.551 170.718 328.824 170.633C331.628 170.587 334.435 170.625 337.236 170.738C338.417 170.786 339.496 171.376 340.65 171.576C342.178 171.848 345.239 172.358 345.239 172.358C345.239 172.358 347.321 172.416 348.36 172.487C349.637 172.573 350.942 172.718 352.214 172.873C353.087 172.98 356.593 172.736 356.042 174.411C354.81 178.16 352.961 181.562 350.875 184.805C349.665 186.685 348.374 188.573 346.828 190.115C344.976 191.964 343.155 193.962 341.413 195.938C340.627 196.83 339.688 197.422 338.688 198.015C336.995 199.019 335.438 200.299 333.817 201.451C333.036 202.006 332.266 202.595 331.439 203.054C330.003 203.854 324.105 190.17 329.834 202.837C330.043 203.3 330.003 203.584 329.53 203.867C327.554 205.044 325.449 205.364 323.257 205.203C321.153 205.084 318.907 204.956 317.081 203.739Z" fill="#8FC642"/>
<path d="M257.038 296.03C258.775 294.359 260.493 294.909 262.409 294.121C264.011 293.464 265.194 294.511 266.431 295.197C269.087 296.669 268.36 300.206 268.683 302.56C269.43 308.009 274.064 305.668 272.438 301.579C271.454 299.105 269.159 295.444 270.86 292.985C271.375 292.239 272.067 291.64 273.053 291.661C274.609 291.694 276.19 291.473 277.726 292.068C279.917 292.918 281.942 293.931 283.125 296.043C283.5 296.713 284.248 297.209 284.648 297.872C287.579 302.723 287.894 309.453 286.843 314.621C286.284 317.369 285.643 320.102 284.931 322.813C284.629 323.957 283.821 324.884 283.377 325.967C282.783 327.401 281.627 330.28 281.627 330.28C281.627 330.28 281.122 332.302 280.829 333.301C280.47 334.53 280.048 335.773 279.623 336.981C279.331 337.811 278.815 341.287 277.297 340.389C273.901 338.379 270.976 335.842 268.258 333.107C266.683 331.521 265.116 329.853 263.943 328.013C262.536 325.805 260.977 323.598 259.421 321.472C258.72 320.512 258.343 319.467 257.979 318.363C257.364 316.494 256.449 314.698 255.673 312.867C255.298 311.985 254.889 311.106 254.618 310.2C254.146 308.625 268.779 305.809 255.175 308.679C254.679 308.784 254.41 308.684 254.235 308.161C253.511 305.977 253.652 303.853 254.28 301.747C254.849 299.718 255.457 297.552 257.038 296.03Z" fill="#8FC642"/>
<path d="M192.608 245.739C194.219 242.508 192.673 240.356 192.946 237.293C193.171 234.733 191.153 233.569 189.625 232.159C186.347 229.129 181.628 231.828 178.128 232.492C170.029 234.028 171.308 226.414 177.859 226.756C181.823 226.963 188.061 228.447 190.813 224.892C191.647 223.815 192.194 222.56 191.726 221.185C190.988 219.017 190.601 216.693 189.07 214.819C186.887 212.147 184.544 209.786 181.007 209.127C179.886 208.918 178.845 208.105 177.723 207.858C169.506 206.046 159.771 208.796 152.87 212.724C149.2 214.813 145.588 217.01 142.039 219.296C140.543 220.262 139.581 221.836 138.233 222.973C136.453 224.487 132.861 227.477 132.861 227.477C132.861 227.477 130.204 229.145 128.909 230.029C127.317 231.117 125.732 232.3 124.198 233.47C123.145 234.273 118.418 236.647 120.372 238.351C124.745 242.164 129.662 245.066 134.768 247.583C137.728 249.043 140.801 250.45 143.946 251.223C147.718 252.151 151.557 253.291 155.279 254.466C156.958 254.995 158.616 255.028 160.351 255.015C163.289 254.992 166.256 255.424 169.211 255.645C170.635 255.752 172.069 255.91 173.481 255.86C175.936 255.775 173.453 233.899 175.402 254.356C175.474 255.103 175.735 255.432 176.559 255.429C179.993 255.41 182.959 254.204 185.682 252.323C188.323 250.562 191.14 248.681 192.608 245.739Z" fill="#8FC642"/>
<path d="M308.442 166.947C304.949 167.95 303.108 166.026 300.028 165.736C297.455 165.49 296.677 163.281 295.565 161.512C293.176 157.715 296.718 153.541 298.021 150.201C301.039 142.471 293.272 142.343 292.399 148.885C291.871 152.844 292.184 159.285 288.16 161.356C286.94 161.984 285.598 162.295 284.326 161.581C282.318 160.454 280.092 159.646 278.522 157.789C276.283 155.14 274.382 152.39 274.385 148.771C274.385 147.624 273.773 146.446 273.737 145.291C273.465 136.832 277.986 127.707 283.146 121.6C285.89 118.352 288.731 115.182 291.648 112.09C292.88 110.787 294.615 110.124 295.989 108.999C297.815 107.515 301.435 104.51 301.435 104.51C301.435 104.51 303.577 102.187 304.691 101.068C306.06 99.6922 307.523 98.3411 308.964 97.0378C309.953 96.1432 313.175 91.9023 314.499 94.1471C317.46 99.1707 319.42 104.565 320.965 110.076C321.861 113.271 322.684 116.568 322.866 119.82C323.086 123.721 323.504 127.727 323.977 131.623C324.19 133.381 323.916 135.027 323.582 136.741C323.015 139.643 322.894 142.656 322.566 145.62C322.408 147.047 322.299 148.494 321.988 149.882C321.45 152.295 300.277 145.834 320.146 151.507C320.871 151.714 321.149 152.033 320.993 152.847C320.339 156.241 318.598 158.954 316.234 161.302C314.004 163.592 311.623 166.034 308.442 166.947Z" fill="#029444"/>
<path d="M295.011 288.254C295.847 284.717 298.425 284.053 300.187 281.511C301.661 279.387 303.967 279.791 306.055 279.687C310.536 279.463 312.441 284.595 314.715 287.367C319.977 293.783 323.891 287.074 318.615 283.109C315.422 280.71 309.651 277.83 309.816 273.307C309.866 271.936 310.252 270.613 311.498 269.854C313.464 268.655 315.258 267.109 317.646 266.65C321.052 265.995 324.38 265.683 327.534 267.458C328.534 268.02 329.861 268.063 330.886 268.597C338.395 272.502 344.138 280.912 346.936 288.402C348.424 292.384 349.797 296.413 351.065 300.471C351.598 302.183 351.327 304.02 351.635 305.769C352.034 308.088 352.882 312.716 352.882 312.716C352.882 312.716 353.859 315.721 354.289 317.24C354.818 319.108 355.28 321.045 355.711 322.939C356.006 324.24 358.126 329.125 355.521 329.181C349.691 329.303 344.028 328.371 338.466 327.019C335.242 326.236 331.964 325.339 329.039 323.906C325.53 322.188 321.833 320.59 318.204 319.095C316.567 318.42 315.266 317.375 313.935 316.245C311.682 314.33 309.114 312.749 306.691 311.011C305.523 310.175 304.315 309.371 303.258 308.42C301.417 306.77 317.417 291.472 302.743 306.019C302.207 306.549 301.793 306.635 301.159 306.101C298.521 303.869 297.007 301.023 296.117 297.812C295.212 294.746 294.249 291.474 295.011 288.254Z" fill="#029444"/>
<path d="M124.3 428.3C124.3 421.767 125.9 415.733 129.1 410.2C132.367 404.667 136.767 400.3 142.3 397.1C147.833 393.833 153.867 392.2 160.4 392.2C167.133 392.2 173.333 393.933 179 397.4C184.667 400.8 189.033 405.367 192.1 411.1L177.1 419.1C175.433 416.167 173.1 413.8 170.1 412C167.167 410.133 163.933 409.2 160.4 409.2C156.933 409.2 153.733 410.067 150.8 411.8C147.933 413.533 145.633 415.867 143.9 418.8C142.167 421.667 141.3 424.833 141.3 428.3C141.3 431.767 142.167 434.967 143.9 437.9C145.633 440.767 147.933 443.067 150.8 444.8C153.733 446.467 156.933 447.3 160.4 447.3C164 447.3 167.3 446.367 170.3 444.5C173.367 442.633 175.667 440.133 177.2 437L192.3 445.2C189.233 451 184.833 455.667 179.1 459.2C173.367 462.667 167.133 464.4 160.4 464.4C153.867 464.4 147.833 462.8 142.3 459.6C136.767 456.333 132.367 451.933 129.1 446.4C125.9 440.867 124.3 434.833 124.3 428.3ZM210.423 463V393H227.423V463H210.423ZM244.155 428.3C244.155 421.767 245.755 415.733 248.955 410.2C252.222 404.667 256.622 400.3 262.155 397.1C267.689 393.833 273.722 392.2 280.255 392.2C286.989 392.2 293.189 393.933 298.855 397.4C304.522 400.8 308.889 405.367 311.955 411.1L296.955 419.1C295.289 416.167 292.955 413.8 289.955 412C287.022 410.133 283.789 409.2 280.255 409.2C276.789 409.2 273.589 410.067 270.655 411.8C267.789 413.533 265.489 415.867 263.755 418.8C262.022 421.667 261.155 424.833 261.155 428.3C261.155 431.767 262.022 434.967 263.755 437.9C265.489 440.767 267.789 443.067 270.655 444.8C273.589 446.467 276.789 447.3 280.255 447.3C283.855 447.3 287.155 446.367 290.155 444.5C293.222 442.633 295.522 440.133 297.055 437L312.155 445.2C309.089 451 304.689 455.667 298.955 459.2C293.222 462.667 286.989 464.4 280.255 464.4C273.722 464.4 267.689 462.8 262.155 459.6C256.622 456.333 252.222 451.933 248.955 446.4C245.755 440.867 244.155 434.833 244.155 428.3ZM389.773 463H371.573L367.073 450.8H342.973L338.473 463H320.273L345.873 393H364.073L389.773 463ZM355.073 417.7L348.873 434.6H361.173L355.073 417.7Z" fill="#016638"/>
</svg>
