<svg width="512" height="512" viewBox="0 0 512 512" fill="none" xmlns="http://www.w3.org/2000/svg">
<path d="M265.504 175.144C259.183 181.757 252.966 179.873 246.011 183.13C240.195 185.845 235.927 181.991 231.456 179.522C221.857 174.227 224.551 160.605 223.42 151.642C220.805 130.894 203.977 140.435 209.799 155.869C213.323 165.208 221.576 178.921 215.371 188.546C213.491 191.464 210.975 193.842 207.402 193.886C201.764 193.957 196.033 195.003 190.477 192.92C182.552 189.949 175.233 186.33 170.982 178.4C169.633 175.886 166.933 174.081 165.495 171.595C154.957 153.411 153.927 127.707 157.824 107.804C159.894 97.2207 162.264 86.6855 164.89 76.2246C166.002 71.8113 168.947 68.165 170.573 63.964C172.749 58.404 176.987 47.2432 176.987 47.2432C176.987 47.2432 178.853 39.4479 179.928 35.5889C181.25 30.8425 182.802 26.0332 184.362 21.3566C185.434 18.1463 187.362 4.78284 192.847 8.02526C205.117 15.2844 215.672 24.6206 225.476 34.7388C231.158 40.6049 236.805 46.7856 241.024 53.6788C246.086 61.9439 251.697 70.1913 257.299 78.1271C259.824 81.7085 261.171 85.6589 262.471 89.8358C264.669 96.9084 267.955 103.663 270.737 110.569C272.079 113.894 273.546 117.203 274.512 120.636C276.196 126.601 223.128 139.224 272.469 126.523C274.269 126.062 275.241 126.409 275.865 128.388C278.453 136.649 277.907 144.793 275.594 152.926C273.5 160.763 271.26 169.122 265.504 175.144Z" fill="#016638"/>
<path d="M172.07 330.723C182.005 330.61 184.677 336.391 192.208 339.09C198.497 341.352 198.164 347.119 199.143 352.058C201.249 362.659 187.87 370.294 181.059 377.4C165.293 393.846 184.918 399.21 193.986 384.197C199.472 375.111 205.414 359.564 217.82 357.253C221.58 356.55 225.319 356.685 227.809 359.215C231.738 363.208 236.557 366.581 238.607 372.028C241.532 379.796 243.491 387.584 239.697 396.202C238.495 398.934 238.82 402.138 237.703 404.914C229.543 425.24 208.495 444.031 188.975 455.216C178.596 461.164 168.053 466.864 157.396 472.328C152.898 474.63 147.79 475.08 143.118 476.864C136.919 479.209 124.564 484.009 124.564 484.009C124.564 484.009 116.685 488.146 112.681 490.086C107.756 492.471 102.621 494.737 97.5915 496.902C94.139 498.389 81.5046 506.392 80.4848 500.182C78.208 486.287 78.8658 472.163 80.7016 458.029C81.7671 449.835 83.1231 441.446 86.0614 433.58C89.5832 424.146 92.7128 414.331 95.5855 404.742C96.8839 400.417 99.3027 396.676 101.946 392.811C106.423 386.268 109.885 379.168 113.821 372.324C115.715 369.026 117.508 365.651 119.751 362.547C123.644 357.15 170.75 386.331 126.137 359.878C124.51 358.911 124.137 357.97 125.385 356.133C130.6 348.475 137.868 343.147 146.339 339.094C154.41 335.091 163.022 330.827 172.07 330.723Z" fill="#016638"/>
<path d="M348.707 319.733C346.038 313.769 348.937 310.266 348.647 304.836C348.409 300.298 352.085 298.614 354.903 296.409C360.95 291.673 369.201 297.258 375.405 299.049C389.764 303.198 387.969 289.591 376.253 289.021C369.164 288.677 357.934 290.168 353.25 283.43C351.83 281.389 350.935 279.087 351.859 276.756C353.316 273.078 354.155 269.065 357.008 266.047C361.078 261.742 365.412 258.013 371.767 257.489C373.782 257.322 375.691 256.078 377.711 255.846C392.495 254.132 409.695 260.704 421.762 268.839C428.178 273.164 434.484 277.669 440.672 282.32C443.281 284.285 444.897 287.223 447.23 289.461C450.311 292.439 456.53 298.333 456.53 298.333C456.53 298.333 461.165 301.74 463.419 303.524C466.192 305.719 468.945 308.081 471.609 310.411C473.437 312.01 481.722 317.026 478.125 319.671C470.073 325.587 461.111 329.806 451.834 333.316C446.456 335.35 440.881 337.272 435.217 338.068C428.425 339.024 421.498 340.341 414.779 341.74C411.747 342.369 408.787 342.13 405.69 341.797C400.446 341.231 395.123 341.46 389.833 341.32C387.286 341.254 384.716 341.274 382.198 340.933C377.821 340.345 383.659 302.358 378.866 337.949C378.69 339.247 378.202 339.779 376.732 339.627C370.603 338.979 365.386 336.331 360.647 332.538C356.045 328.972 351.138 325.164 348.707 319.733Z" fill="#016638"/>
<path d="M344.615 249.453C341.704 247.514 341.946 244.906 340.231 242.437C338.8 240.372 339.914 238.368 340.5 236.4C341.758 232.176 346.998 232.102 350.234 230.909C357.723 228.149 352.958 222.312 347.671 225.893C344.472 228.061 339.999 232.457 335.982 230.814C334.764 230.316 333.699 229.523 333.421 228.118C332.982 225.902 332.175 223.731 332.539 221.368C333.059 217.997 333.862 214.811 336.487 212.475C337.319 211.733 337.789 210.519 338.604 209.745C344.565 204.076 354.005 201.527 361.659 201.403C365.728 201.337 369.802 201.393 373.867 201.556C375.582 201.626 377.148 202.482 378.822 202.773C381.04 203.167 385.482 203.907 385.482 203.907C385.482 203.907 388.505 203.992 390.012 204.094C391.866 204.22 393.76 204.43 395.606 204.655C396.873 204.81 401.962 204.456 401.163 206.887C399.374 212.328 396.691 217.266 393.663 221.973C391.907 224.701 390.033 227.442 387.79 229.68C385.101 232.363 382.458 235.262 379.931 238.131C378.79 239.425 377.426 240.285 375.975 241.146C373.517 242.602 371.258 244.46 368.905 246.132C367.772 246.938 366.655 247.792 365.454 248.459C363.369 249.62 354.809 229.759 363.125 248.144C363.428 248.815 363.37 249.227 362.683 249.638C359.815 251.347 356.76 251.811 353.579 251.577C350.525 251.405 347.266 251.219 344.615 249.453Z" fill="#8FC642"/>
<path d="M257.471 383.402C259.991 380.976 262.485 381.774 265.266 380.63C267.591 379.677 269.308 381.196 271.103 382.192C274.958 384.329 273.903 389.463 274.372 392.879C275.456 400.787 282.181 397.39 279.821 391.456C278.393 387.865 275.062 382.552 277.531 378.981C278.279 377.899 279.283 377.03 280.714 377.061C282.973 377.109 285.267 376.788 287.496 377.652C290.677 378.884 293.615 380.355 295.332 383.42C295.877 384.392 296.962 385.113 297.542 386.075C301.796 393.116 302.254 402.883 300.728 410.384C299.918 414.373 298.987 418.34 297.953 422.274C297.516 423.934 296.342 425.279 295.698 426.852C294.836 428.933 293.158 433.112 293.158 433.112C293.158 433.112 292.424 436.045 292 437.495C291.479 439.279 290.866 441.083 290.249 442.837C289.826 444.041 289.077 449.087 286.874 447.784C281.945 444.866 277.7 441.183 273.755 437.214C271.468 434.912 269.195 432.492 267.492 429.82C265.45 426.617 263.187 423.413 260.929 420.327C259.911 418.934 259.365 417.417 258.836 415.815C257.943 413.102 256.615 410.495 255.488 407.838C254.945 406.558 254.351 405.283 253.958 403.967C253.273 401.681 274.511 397.595 254.766 401.76C254.046 401.912 253.656 401.767 253.403 401.008C252.351 397.839 252.555 394.755 253.468 391.7C254.293 388.753 255.175 385.611 257.471 383.402Z" fill="#8FC642"/>
<path d="M163.957 310.411C166.296 305.722 164.052 302.599 164.448 298.153C164.774 294.438 161.846 292.749 159.629 290.701C154.871 286.304 148.021 290.221 142.942 291.184C131.186 293.415 133.044 282.363 142.552 282.859C148.305 283.161 157.359 285.314 161.352 280.154C162.564 278.591 163.356 276.77 162.677 274.775C161.606 271.627 161.045 268.255 158.823 265.535C155.654 261.656 152.253 258.23 147.12 257.274C145.493 256.971 143.983 255.79 142.354 255.432C130.428 252.802 116.299 256.793 106.282 262.495C100.956 265.525 95.7144 268.714 90.5637 272.032C88.3914 273.434 86.9954 275.719 85.0394 277.37C82.4552 279.567 77.2425 283.906 77.2425 283.906C77.2425 283.906 73.3862 286.328 71.507 287.611C69.1957 289.189 66.8954 290.906 64.6687 292.604C63.1402 293.77 56.2796 297.215 59.1156 299.689C65.4632 305.223 72.5986 309.434 80.0098 313.088C84.3061 315.206 88.766 317.248 93.3311 318.37C98.8051 319.717 104.378 321.373 109.779 323.078C112.217 323.846 114.622 323.893 117.141 323.874C121.406 323.841 125.711 324.468 130.001 324.789C132.066 324.944 134.148 325.173 136.198 325.1C139.761 324.977 136.157 293.227 138.985 322.918C139.089 324.001 139.469 324.48 140.664 324.475C145.649 324.448 149.954 322.698 153.905 319.967C157.739 317.411 161.827 314.681 163.957 310.411Z" fill="#8FC642"/>
<path d="M332.076 196.054C327.007 197.509 324.335 194.718 319.865 194.296C316.13 193.939 315.002 190.733 313.387 188.165C309.919 182.654 315.06 176.596 316.952 171.749C321.332 160.53 310.06 160.344 308.792 169.839C308.025 175.585 308.481 184.934 302.639 187.939C300.869 188.851 298.922 189.302 297.075 188.265C294.16 186.629 290.93 185.457 288.651 182.762C285.401 178.917 282.642 174.926 282.647 169.674C282.648 168.009 281.759 166.3 281.707 164.622C281.312 152.345 287.873 139.101 295.363 130.238C299.346 125.524 303.468 120.923 307.702 116.436C309.49 114.544 312.008 113.582 314.002 111.949C316.653 109.795 321.908 105.434 321.908 105.434C321.908 105.434 325.016 102.063 326.632 100.439C328.62 98.4418 330.743 96.4808 332.834 94.5893C334.27 93.2909 338.946 87.1358 340.868 90.3938C345.166 97.685 348.01 105.513 350.253 113.513C351.552 118.15 352.747 122.935 353.012 127.655C353.331 133.316 353.937 139.131 354.624 144.786C354.932 147.337 354.535 149.725 354.05 152.213C353.228 156.425 353.052 160.799 352.575 165.1C352.347 167.171 352.188 169.272 351.737 171.286C350.956 174.788 320.227 165.412 349.064 173.644C350.115 173.945 350.519 174.408 350.293 175.589C349.344 180.515 346.817 184.453 343.386 187.861C340.149 191.185 336.693 194.729 332.076 196.054Z" fill="#029444"/>
<path d="M312.583 372.116C313.796 366.983 317.538 366.02 320.095 362.33C322.235 359.248 325.582 359.834 328.612 359.683C335.115 359.358 337.88 366.806 341.181 370.829C348.818 380.142 354.499 370.404 346.841 364.65C342.207 361.168 333.832 356.987 334.072 350.422C334.143 348.433 334.704 346.514 336.512 345.411C339.365 343.671 341.969 341.428 345.435 340.761C350.379 339.81 355.209 339.358 359.787 341.934C361.238 342.75 363.164 342.812 364.652 343.588C375.55 349.255 383.885 361.46 387.946 372.331C390.106 378.111 392.099 383.959 393.938 389.848C394.712 392.333 394.319 395 394.766 397.538C395.346 400.903 396.576 407.621 396.576 407.621C396.576 407.621 397.993 411.981 398.618 414.186C399.386 416.897 400.056 419.709 400.681 422.458C401.11 424.346 404.188 431.437 400.406 431.517C391.944 431.694 383.726 430.341 375.653 428.38C370.974 427.242 366.216 425.941 361.971 423.861C356.878 421.367 351.512 419.048 346.244 416.879C343.869 415.898 341.982 414.382 340.05 412.742C336.78 409.963 333.052 407.668 329.535 405.146C327.841 403.933 326.088 402.765 324.552 401.386C321.881 398.99 345.103 376.788 323.805 397.901C323.027 398.67 322.426 398.795 321.507 398.02C317.677 394.78 315.481 390.649 314.189 385.988C312.876 381.539 311.478 376.79 312.583 372.116Z" fill="#029444"/>
</svg>
