<svg width="64" height="64" viewBox="0 0 64 64" fill="none" xmlns="http://www.w3.org/2000/svg">
<path d="M33.188 21.8935C32.3979 22.7202 31.6208 22.4846 30.7514 22.8918C30.0244 23.2312 29.4909 22.7494 28.9321 22.4408C27.7321 21.7789 28.069 20.0761 27.9276 18.9557C27.6007 16.3622 25.4971 17.5548 26.2249 19.4841C26.6654 20.6515 27.6971 22.3656 26.9214 23.5687C26.6865 23.9335 26.3719 24.2307 25.9252 24.2363C25.2205 24.2451 24.5042 24.3759 23.8096 24.1155C22.819 23.7441 21.9042 23.2918 21.3728 22.3005C21.2042 21.9863 20.8666 21.7606 20.6869 21.4499C19.3697 19.1768 19.2409 15.9639 19.728 13.476C19.9868 12.1531 20.283 10.8362 20.6113 9.52856C20.7503 8.97691 21.1184 8.52111 21.3217 7.99599C21.5937 7.30099 22.1235 5.90589 22.1235 5.90589C22.1235 5.90589 22.3567 4.93148 22.4911 4.4491C22.6563 3.8558 22.8503 3.25464 23.0453 2.67006C23.1793 2.26877 23.4203 0.598344 24.1059 1.00365C25.6397 1.91104 26.9591 3.07806 28.1845 4.34284C28.8948 5.0761 29.6006 5.84869 30.1281 6.71034C30.7608 7.74348 31.4622 8.7744 32.1624 9.76638C32.478 10.214 32.6464 10.7078 32.8089 11.23C33.0837 12.114 33.4945 12.9583 33.8422 13.8216C34.0099 14.2373 34.1933 14.6508 34.314 15.0799C34.5245 15.8256 27.891 17.4035 34.0586 15.8159C34.2837 15.7582 34.4051 15.8016 34.4831 16.049C34.8067 17.0816 34.7385 18.0996 34.4493 19.1163C34.1875 20.0959 33.9075 21.1407 33.188 21.8935Z" fill="#016638"/>
<path d="M21.5087 41.3399C22.7506 41.3258 23.0846 42.0484 24.0259 42.3857C24.8121 42.6685 24.7705 43.3894 24.8928 44.0068C25.1561 45.3319 23.4837 46.2863 22.6324 47.1745C20.6617 49.2303 23.1148 49.9008 24.2482 48.0242C24.934 46.8884 25.6768 44.945 27.2275 44.6561C27.6975 44.5683 28.1649 44.5851 28.4762 44.9014C28.9673 45.4005 29.5696 45.8222 29.8259 46.503C30.1915 47.474 30.4364 48.4475 29.9621 49.5247C29.8118 49.8663 29.8525 50.2668 29.7129 50.6138C28.6929 53.1546 26.0619 55.5034 23.6219 56.9015C22.3245 57.645 21.0066 58.3575 19.6745 59.0405C19.1122 59.3283 18.4737 59.3845 17.8897 59.6075C17.1148 59.9007 15.5704 60.5006 15.5704 60.5006C15.5704 60.5006 14.5856 61.0178 14.0851 61.2602C13.4695 61.5584 12.8276 61.8416 12.1989 62.1123C11.7674 62.2981 10.1881 63.2985 10.0606 62.5223C9.77598 60.7854 9.85821 59.0199 10.0877 57.2531C10.2209 56.2289 10.3904 55.1803 10.7577 54.197C11.1979 53.0178 11.5891 51.7909 11.9482 50.5923C12.1105 50.0516 12.4128 49.5841 12.7432 49.1009C13.3029 48.283 13.7356 47.3955 14.2276 46.54C14.4644 46.1278 14.6885 45.7059 14.9689 45.3179C15.4555 44.6433 21.3438 48.2908 15.7671 44.9842C15.5638 44.8634 15.5172 44.7458 15.6731 44.5161C16.325 43.5589 17.2334 42.8929 18.2924 42.3862C19.3012 41.8859 20.3777 41.3528 21.5087 41.3399Z" fill="#016638"/>
<path d="M43.5884 39.9661C43.2547 39.2206 43.6171 38.7827 43.5808 38.104C43.5511 37.5367 44.0106 37.3263 44.3629 37.0506C45.1187 36.4586 46.1501 37.1568 46.9256 37.3807C48.7204 37.8992 48.496 36.1984 47.0316 36.1271C46.1455 36.0841 44.7417 36.2705 44.1563 35.4283C43.9787 35.1731 43.8669 34.8853 43.9823 34.594C44.1645 34.1342 44.2693 33.6327 44.626 33.2554C45.1347 32.7172 45.6765 32.2511 46.4709 32.1856C46.7227 32.1647 46.9614 32.0093 47.2139 31.9802C49.0619 31.766 51.2119 32.5875 52.7202 33.6044C53.5223 34.145 54.3104 34.7081 55.0839 35.2895C55.4101 35.5351 55.6121 35.9023 55.9037 36.1822C56.2888 36.5544 57.0662 37.2912 57.0662 37.2912C57.0662 37.2912 57.6456 37.717 57.9274 37.9401C58.274 38.2144 58.6181 38.5096 58.9511 38.8009C59.1796 39.0008 60.2153 39.6278 59.7656 39.9584C58.7591 40.6979 57.6388 41.2252 56.4792 41.664C55.807 41.9182 55.1101 42.1586 54.4021 42.258C53.553 42.3775 52.6872 42.5422 51.8473 42.717C51.4684 42.7956 51.0983 42.7658 50.7112 42.7242C50.0557 42.6534 49.3903 42.6821 48.7291 42.6645C48.4107 42.6562 48.0895 42.6587 47.7747 42.6161C47.2276 42.5427 47.9574 37.7942 47.3582 42.2431C47.3362 42.4054 47.2752 42.4719 47.0915 42.4528C46.3253 42.3719 45.6732 42.0408 45.0808 41.5668C44.5056 41.121 43.8922 40.645 43.5884 39.9661Z" fill="#016638"/>
<path d="M43.0769 31.1817C42.713 30.9392 42.7433 30.6133 42.5289 30.3046C42.35 30.0464 42.4893 29.796 42.5626 29.55C42.7198 29.022 43.3748 29.0128 43.7793 28.8636C44.7155 28.5186 44.1199 27.789 43.4589 28.2367C43.059 28.5076 42.5 29.0571 41.9978 28.8517C41.8455 28.7895 41.7125 28.6903 41.6777 28.5148C41.6228 28.2378 41.5219 27.9664 41.5674 27.671C41.6324 27.2496 41.7329 26.8514 42.0609 26.5593C42.1649 26.4667 42.2237 26.3148 42.3256 26.2181C43.0706 25.5095 44.2507 25.1909 45.2074 25.1754C45.7161 25.1671 46.2253 25.1741 46.7335 25.1945C46.9479 25.2032 47.1436 25.3103 47.3529 25.3466C47.6301 25.3959 48.1854 25.4884 48.1854 25.4884C48.1854 25.4884 48.5632 25.499 48.7516 25.5118C48.9834 25.5274 49.2201 25.5537 49.4508 25.5819C49.6092 25.6012 50.2453 25.5569 50.1454 25.8609C49.9218 26.541 49.5864 27.1583 49.2079 27.7466C48.9885 28.0877 48.7542 28.4303 48.4738 28.71C48.1377 29.0454 47.8074 29.4078 47.4914 29.7664C47.3488 29.9281 47.1783 30.0357 46.9969 30.1432C46.6897 30.3252 46.4073 30.5575 46.1132 30.7665C45.9715 30.8673 45.8319 30.974 45.6819 31.0574C45.4212 31.2025 44.3512 28.7198 45.3907 31.0181C45.4285 31.1019 45.4214 31.1534 45.3355 31.2048C44.9769 31.4184 44.595 31.4764 44.1975 31.4472C43.8156 31.4257 43.4083 31.4024 43.0769 31.1817Z" fill="#8FC642"/>
<path d="M32.1839 47.9251C32.4989 47.6219 32.8107 47.7216 33.1583 47.5787C33.4489 47.4595 33.6635 47.6494 33.8879 47.7739C34.3698 48.041 34.2379 48.6827 34.2965 49.1098C34.432 50.0982 35.2726 49.6736 34.9777 48.9318C34.7991 48.483 34.3828 47.8188 34.6914 47.3726C34.7849 47.2372 34.9104 47.1286 35.0893 47.1324C35.3717 47.1385 35.6584 47.0983 35.9371 47.2063C36.3346 47.3604 36.7019 47.5442 36.9165 47.9274C36.9847 48.0489 37.1203 48.139 37.1928 48.2593C37.7245 49.1393 37.7818 50.3603 37.5911 51.2979C37.4897 51.7965 37.3734 52.2923 37.2442 52.7842C37.1895 52.9917 37.0428 53.1598 36.9623 53.3563C36.8546 53.6165 36.6448 54.1388 36.6448 54.1388C36.6448 54.1388 36.5531 54.5055 36.5001 54.6868C36.4349 54.9097 36.3583 55.1353 36.2812 55.3545C36.2282 55.505 36.1346 56.1357 35.8593 55.9728C35.2432 55.6082 34.7126 55.1478 34.2194 54.6516C33.9335 54.3639 33.6494 54.0614 33.4366 53.7274C33.1813 53.327 32.8984 52.9264 32.6162 52.5407C32.489 52.3667 32.4206 52.177 32.3546 51.9767C32.2429 51.6376 32.0769 51.3118 31.9361 50.9796C31.8681 50.8196 31.7939 50.6603 31.7448 50.4958C31.6592 50.21 34.3139 49.6992 31.8458 50.2199C31.7558 50.2388 31.707 50.2208 31.6754 50.1258C31.5439 49.7297 31.5694 49.3443 31.6835 48.9623C31.7866 48.5941 31.897 48.2013 32.1839 47.9251Z" fill="#8FC642"/>
<path d="M20.4947 38.8012C20.7871 38.2151 20.5065 37.8248 20.556 37.2691C20.5969 36.8046 20.2308 36.5935 19.9537 36.3375C19.3589 35.7879 18.5027 36.2775 17.8678 36.3979C16.3984 36.6767 16.6306 35.2953 17.819 35.3573C18.5382 35.3949 19.6699 35.6642 20.1691 35.0192C20.3205 34.8238 20.4196 34.5961 20.3347 34.3467C20.2008 33.9533 20.1307 33.5318 19.853 33.1918C19.4568 32.7069 19.0317 32.2786 18.3901 32.1591C18.1867 32.1212 17.9979 31.9736 17.7943 31.9288C16.3035 31.6001 14.5374 32.0991 13.2854 32.8117C12.6196 33.1906 11.9644 33.5891 11.3205 34.0039C11.049 34.1792 10.8745 34.4648 10.63 34.6711C10.307 34.9458 9.65537 35.4881 9.65537 35.4881C9.65537 35.4881 9.17334 35.7908 8.93844 35.9512C8.64952 36.1485 8.36198 36.3631 8.08365 36.5754C7.89259 36.7211 7.03501 37.1518 7.38951 37.461C8.18296 38.1527 9.07488 38.6791 10.0013 39.1359C10.5383 39.4006 11.0958 39.6559 11.6664 39.7962C12.3507 39.9645 13.0473 40.1715 13.7225 40.3846C14.0272 40.4806 14.3278 40.4866 14.6427 40.4842C15.1757 40.48 15.714 40.5584 16.2501 40.5985C16.5084 40.6179 16.7685 40.6465 17.0248 40.6374C17.4702 40.622 17.0197 36.6532 17.3732 40.3647C17.3862 40.5 17.4337 40.5599 17.5831 40.5593C18.2062 40.5559 18.7443 40.3371 19.2382 39.9958C19.7174 39.6762 20.2284 39.335 20.4947 38.8012Z" fill="#8FC642"/>
<path d="M41.5096 24.5069C40.8759 24.6888 40.5418 24.3398 39.9831 24.2871C39.5163 24.2424 39.3752 23.8418 39.1734 23.5208C38.7399 22.8319 39.3825 22.0746 39.619 21.4687C40.1665 20.0663 38.7575 20.0431 38.599 21.23C38.5032 21.9482 38.5601 23.1169 37.8299 23.4925C37.6087 23.6065 37.3652 23.6629 37.1343 23.5333C36.7701 23.3288 36.3662 23.1823 36.0814 22.8454C35.6752 22.3648 35.3303 21.8659 35.3309 21.2094C35.331 21.0012 35.2199 20.7876 35.2133 20.5779C35.164 19.0433 35.9841 17.3878 36.9204 16.2798C37.4182 15.6906 37.9335 15.1155 38.4628 14.5547C38.6863 14.3182 39.001 14.1978 39.2503 13.9938C39.5816 13.7246 40.2384 13.1793 40.2384 13.1793C40.2384 13.1793 40.627 12.758 40.829 12.555C41.0775 12.3053 41.3429 12.0602 41.6043 11.8238C41.7838 11.6615 42.3683 10.8921 42.6085 11.2993C43.1457 12.2107 43.5013 13.1893 43.7816 14.1892C43.944 14.7688 44.0933 15.367 44.1265 15.9571C44.1664 16.6647 44.2421 17.3915 44.328 18.0984C44.3666 18.4173 44.3168 18.7158 44.2562 19.0268C44.1535 19.5532 44.1315 20.1 44.0719 20.6376C44.0434 20.8966 44.0235 21.1591 43.9671 21.4109C43.8695 21.8486 40.0283 20.6766 43.633 21.7056C43.7644 21.7433 43.8148 21.8011 43.7866 21.9488C43.6679 22.5645 43.3521 23.0567 42.9232 23.4827C42.5186 23.8982 42.0866 24.3412 41.5096 24.5069Z" fill="#029444"/>
<path d="M39.0728 46.5149C39.2245 45.8733 39.6923 45.7529 40.0119 45.2916C40.2794 44.9064 40.6978 44.9796 41.0765 44.9608C41.8894 44.9201 42.2351 45.8512 42.6476 46.354C43.6023 47.5181 44.3124 46.3009 43.3552 45.5816C42.7759 45.1464 41.729 44.6238 41.759 43.8032C41.7679 43.5545 41.838 43.3146 42.064 43.1767C42.4207 42.9592 42.7461 42.6788 43.1794 42.5955C43.7973 42.4766 44.4012 42.4201 44.9733 42.7421C45.1548 42.8441 45.3954 42.8519 45.5815 42.9488C46.9437 43.6572 47.9856 45.1829 48.4932 46.5418C48.7632 47.2643 49.0123 47.9952 49.2423 48.7313C49.339 49.042 49.2898 49.3753 49.3457 49.6926C49.4182 50.1133 49.572 50.953 49.572 50.953C49.572 50.953 49.7492 51.498 49.8272 51.7736C49.9232 52.1125 50.007 52.4639 50.0852 52.8076C50.1388 53.0436 50.5235 53.9299 50.0508 53.94C48.993 53.9621 47.9657 53.793 46.9566 53.5478C46.3717 53.4056 45.7771 53.243 45.2463 52.9829C44.6098 52.6713 43.9389 52.3814 43.2806 52.1102C42.9836 51.9877 42.7477 51.7982 42.5062 51.5931C42.0975 51.2457 41.6315 50.9588 41.1919 50.6436C40.9801 50.4919 40.7609 50.346 40.569 50.1736C40.2351 49.8742 43.1378 47.0988 40.4756 49.7379C40.3784 49.8341 40.3033 49.8497 40.1883 49.7528C39.7096 49.3479 39.4351 48.8315 39.2736 48.2489C39.1095 47.6927 38.9347 47.0992 39.0728 46.5149Z" fill="#029444"/>
</svg>
