<svg width="1010" height="512" viewBox="0 0 1010 512" fill="none" xmlns="http://www.w3.org/2000/svg">
<path d="M348.448 272.168C348.448 255.443 352.544 239.997 360.736 225.832C369.099 211.667 380.363 200.488 394.528 192.296C408.693 183.933 424.139 179.752 440.864 179.752C458.101 179.752 473.973 184.189 488.48 193.064C502.987 201.768 514.165 213.459 522.016 228.136L483.616 248.616C479.349 241.107 473.376 235.048 465.696 230.44C458.187 225.661 449.909 223.272 440.864 223.272C431.989 223.272 423.797 225.491 416.288 229.928C408.949 234.365 403.061 240.339 398.624 247.848C394.187 255.187 391.968 263.293 391.968 272.168C391.968 281.043 394.187 289.235 398.624 296.744C403.061 304.083 408.949 309.971 416.288 314.408C423.797 318.675 431.989 320.808 440.864 320.808C450.08 320.808 458.528 318.419 466.208 313.64C474.059 308.861 479.947 302.461 483.872 294.44L522.528 315.432C514.677 330.28 503.413 342.227 488.736 351.272C474.059 360.147 458.101 364.584 440.864 364.584C424.139 364.584 408.693 360.488 394.528 352.296C380.363 343.933 369.099 332.669 360.736 318.504C352.544 304.339 348.448 288.893 348.448 272.168ZM554.884 361V181.8H598.404V361H554.884ZM627.198 272.168C627.198 255.443 631.294 239.997 639.486 225.832C647.849 211.667 659.113 200.488 673.278 192.296C687.443 183.933 702.889 179.752 719.614 179.752C736.851 179.752 752.723 184.189 767.23 193.064C781.737 201.768 792.915 213.459 800.766 228.136L762.366 248.616C758.099 241.107 752.126 235.048 744.446 230.44C736.937 225.661 728.659 223.272 719.614 223.272C710.739 223.272 702.547 225.491 695.038 229.928C687.699 234.365 681.811 240.339 677.374 247.848C672.937 255.187 670.718 263.293 670.718 272.168C670.718 281.043 672.937 289.235 677.374 296.744C681.811 304.083 687.699 309.971 695.038 314.408C702.547 318.675 710.739 320.808 719.614 320.808C728.83 320.808 737.278 318.419 744.958 313.64C752.809 308.861 758.697 302.461 762.622 294.44L801.278 315.432C793.427 330.28 782.163 342.227 767.486 351.272C752.809 360.147 736.851 364.584 719.614 364.584C702.889 364.584 687.443 360.488 673.278 352.296C659.113 343.933 647.849 332.669 639.486 318.504C631.294 304.339 627.198 288.893 627.198 272.168ZM985.938 361H939.346L927.826 329.768H866.13L854.61 361H808.018L873.554 181.8H920.146L985.938 361ZM897.106 245.032L881.234 288.296H912.722L897.106 245.032Z" fill="#016638"/>
<path d="M161.573 190.54C157.218 195.097 152.935 193.798 148.143 196.043C144.136 197.913 141.195 195.258 138.115 193.557C131.501 189.908 133.357 180.523 132.578 174.347C130.776 160.052 119.181 166.625 123.192 177.259C125.621 183.694 131.307 193.142 127.032 199.774C125.737 201.785 124.003 203.423 121.541 203.454C117.656 203.502 113.708 204.223 109.88 202.788C104.419 200.741 99.3769 198.247 96.4478 192.783C95.5184 191.051 93.6579 189.807 92.6673 188.095C85.4068 175.566 84.6968 157.856 87.3815 144.143C88.8081 136.851 90.4408 129.592 92.2505 122.384C93.0164 119.344 95.0456 116.831 96.1663 113.937C97.6653 110.106 100.586 102.416 100.586 102.416C100.586 102.416 101.871 97.0453 102.612 94.3864C103.523 91.1161 104.592 87.8025 105.667 84.5803C106.405 82.3684 107.734 73.1609 111.513 75.395C119.967 80.3966 127.239 86.8292 133.994 93.8006C137.909 97.8424 141.8 102.101 144.707 106.85C148.195 112.545 152.061 118.227 155.92 123.695C157.66 126.163 158.588 128.885 159.484 131.763C160.998 136.636 163.262 141.289 165.179 146.047C166.104 148.339 167.115 150.618 167.78 152.984C168.94 157.094 132.376 165.791 166.372 157.04C167.613 156.722 168.282 156.961 168.712 158.325C170.496 164.017 170.119 169.628 168.525 175.232C167.082 180.631 165.539 186.391 161.573 190.54Z" fill="#016638"/>
<path d="M97.1971 297.734C104.043 297.656 105.884 301.639 111.072 303.498C115.405 305.057 115.176 309.031 115.85 312.434C117.302 319.738 108.083 324.998 103.391 329.894C92.5282 341.226 106.05 344.921 112.297 334.577C116.077 328.317 120.172 317.605 128.719 316.013C131.31 315.529 133.886 315.622 135.602 317.365C138.309 320.116 141.629 322.44 143.042 326.193C145.056 331.545 146.407 336.911 143.792 342.849C142.964 344.731 143.188 346.939 142.418 348.852C136.797 362.856 122.294 375.803 108.845 383.509C101.694 387.608 94.4294 391.535 87.0869 395.3C83.9875 396.886 80.4684 397.196 77.2494 398.425C72.9782 400.041 64.4653 403.348 64.4653 403.348C64.4653 403.348 59.0371 406.199 56.2783 407.535C52.8851 409.178 49.3468 410.739 45.8816 412.231C43.5028 413.256 34.7977 418.77 34.095 414.491C32.5263 404.918 32.9795 395.186 34.2445 385.447C34.9786 379.802 35.9128 374.022 37.9373 368.602C40.3638 362.102 42.5201 355.34 44.4995 348.733C45.394 345.753 47.0606 343.176 48.8818 340.512C51.9668 336.004 54.3518 331.113 57.0639 326.397C58.3686 324.125 59.6042 321.799 61.1496 319.661C63.8321 315.942 96.2879 336.047 65.5492 317.821C64.4287 317.155 64.1717 316.507 65.031 315.241C68.6243 309.965 73.6319 306.294 79.4689 303.501C85.0295 300.743 90.9633 297.805 97.1971 297.734Z" fill="#016638"/>
<path d="M218.9 290.163C217.061 286.053 219.059 283.64 218.859 279.898C218.695 276.772 221.228 275.612 223.17 274.092C227.335 270.829 233.02 274.677 237.295 275.912C247.188 278.77 245.951 269.395 237.88 269.002C232.995 268.765 225.257 269.792 222.031 265.15C221.052 263.744 220.436 262.157 221.072 260.551C222.076 258.017 222.654 255.252 224.62 253.173C227.424 250.207 230.41 247.637 234.789 247.276C236.177 247.161 237.493 246.305 238.884 246.144C249.07 244.963 260.921 249.492 269.235 255.097C273.656 258.076 278.001 261.181 282.264 264.385C284.062 265.739 285.175 267.763 286.782 269.305C288.905 271.357 293.19 275.418 293.19 275.418C293.19 275.418 296.384 277.765 297.937 278.995C299.848 280.507 301.745 282.134 303.58 283.74C304.839 284.842 310.548 288.298 308.069 290.12C302.522 294.196 296.347 297.103 289.955 299.521C286.25 300.923 282.408 302.247 278.505 302.796C273.826 303.454 269.053 304.362 264.424 305.325C262.335 305.759 260.295 305.595 258.161 305.365C254.549 304.975 250.881 305.133 247.236 305.036C245.481 304.99 243.711 305.004 241.976 304.769C238.96 304.364 242.982 278.191 239.68 302.713C239.559 303.608 239.222 303.975 238.21 303.869C233.986 303.423 230.392 301.598 227.127 298.986C223.956 296.528 220.575 293.905 218.9 290.163Z" fill="#016638"/>
<path d="M216.081 241.739C214.075 240.403 214.242 238.606 213.06 236.905C212.074 235.482 212.842 234.101 213.246 232.746C214.112 229.835 217.723 229.784 219.952 228.962C225.112 227.06 221.83 223.039 218.187 225.506C215.982 227 212.901 230.029 210.133 228.896C209.293 228.554 208.56 228.007 208.368 227.039C208.066 225.512 207.51 224.017 207.761 222.388C208.119 220.066 208.672 217.871 210.481 216.261C211.054 215.75 211.378 214.913 211.939 214.38C216.046 210.474 222.551 208.718 227.824 208.633C230.628 208.587 233.435 208.625 236.236 208.738C237.417 208.786 238.496 209.376 239.65 209.576C241.178 209.848 244.239 210.358 244.239 210.358C244.239 210.358 246.321 210.416 247.36 210.487C248.637 210.573 249.942 210.718 251.214 210.873C252.087 210.98 255.593 210.736 255.042 212.411C253.81 216.16 251.961 219.562 249.875 222.805C248.665 224.685 247.374 226.573 245.828 228.115C243.976 229.964 242.155 231.962 240.413 233.938C239.627 234.83 238.688 235.422 237.688 236.015C235.995 237.019 234.438 238.299 232.817 239.451C232.036 240.006 231.266 240.595 230.439 241.054C229.003 241.854 223.105 228.17 228.834 240.837C229.043 241.3 229.003 241.584 228.53 241.867C226.554 243.044 224.449 243.364 222.257 243.203C220.153 243.084 217.907 242.956 216.081 241.739Z" fill="#8FC642"/>
<path d="M156.038 334.03C157.775 332.359 159.493 332.909 161.409 332.121C163.011 331.464 164.194 332.511 165.431 333.197C168.087 334.669 167.36 338.206 167.683 340.56C168.43 346.009 173.064 343.668 171.438 339.579C170.454 337.105 168.159 333.444 169.86 330.985C170.375 330.239 171.067 329.64 172.053 329.661C173.609 329.694 175.19 329.473 176.726 330.068C178.917 330.918 180.942 331.931 182.125 334.043C182.5 334.713 183.248 335.209 183.648 335.872C186.579 340.723 186.894 347.453 185.843 352.621C185.284 355.369 184.643 358.102 183.931 360.813C183.629 361.957 182.821 362.884 182.377 363.967C181.783 365.401 180.627 368.28 180.627 368.28C180.627 368.28 180.122 370.302 179.829 371.301C179.47 372.53 179.048 373.773 178.623 374.981C178.331 375.811 177.815 379.287 176.297 378.389C172.901 376.379 169.976 373.842 167.258 371.107C165.683 369.521 164.116 367.853 162.943 366.013C161.536 363.805 159.977 361.598 158.421 359.472C157.72 358.512 157.343 357.467 156.979 356.363C156.364 354.494 155.449 352.698 154.673 350.867C154.298 349.985 153.889 349.106 153.618 348.2C153.146 346.625 167.779 343.809 154.175 346.679C153.679 346.784 153.41 346.684 153.235 346.161C152.511 343.977 152.652 341.853 153.28 339.747C153.849 337.718 154.457 335.552 156.038 334.03Z" fill="#8FC642"/>
<path d="M91.6076 283.74C93.2192 280.509 91.6728 278.357 91.9456 275.294C92.1707 272.734 90.1532 271.57 88.6253 270.16C85.3471 267.13 80.6275 269.829 77.1281 270.492C69.0286 272.029 70.3084 264.415 76.8591 264.757C80.8232 264.964 87.0613 266.448 89.8129 262.893C90.6474 261.816 91.1937 260.561 90.7259 259.186C89.9876 257.018 89.6013 254.694 88.0704 252.82C85.8867 250.148 83.5436 247.787 80.0068 247.128C78.8856 246.919 77.8454 246.106 76.7227 245.859C68.5057 244.047 58.771 246.797 51.8697 250.725C48.1997 252.814 44.5883 255.011 41.0395 257.297C39.5428 258.263 38.5809 259.837 37.2333 260.974C35.4527 262.488 31.8612 265.478 31.8612 265.478C31.8612 265.478 29.2042 267.146 27.9094 268.03C26.3169 269.118 24.732 270.301 23.1978 271.471C22.1447 272.274 17.4177 274.648 19.3717 276.352C23.7452 280.165 28.6615 283.067 33.7678 285.584C36.728 287.044 39.8009 288.451 42.9462 289.224C46.7178 290.152 50.5573 291.292 54.2792 292.467C55.9584 292.996 57.6158 293.029 59.3512 293.016C62.2895 292.993 65.2563 293.425 68.2115 293.646C69.6348 293.753 71.0687 293.911 72.4812 293.86C74.9365 293.776 72.4532 271.9 74.4019 292.357C74.4737 293.104 74.7351 293.433 75.5586 293.43C78.9932 293.411 81.9594 292.205 84.6818 290.324C87.3232 288.563 90.1398 286.682 91.6076 283.74Z" fill="#8FC642"/>
<path d="M207.442 204.948C203.949 205.951 202.108 204.027 199.028 203.737C196.455 203.491 195.677 201.282 194.565 199.513C192.176 195.716 195.718 191.542 197.021 188.202C200.039 180.472 192.272 180.344 191.399 186.886C190.871 190.845 191.184 197.286 187.16 199.357C185.94 199.985 184.598 200.296 183.326 199.582C181.318 198.454 179.092 197.647 177.522 195.79C175.283 193.141 173.382 190.391 173.385 186.772C173.385 185.625 172.773 184.447 172.737 183.292C172.465 174.833 176.986 165.708 182.146 159.601C184.89 156.353 187.731 153.183 190.648 150.091C191.88 148.788 193.615 148.125 194.989 147C196.815 145.516 200.435 142.511 200.435 142.511C200.435 142.511 202.577 140.188 203.691 139.069C205.06 137.693 206.523 136.342 207.964 135.039C208.953 134.144 212.175 129.903 213.499 132.148C216.46 137.172 218.42 142.565 219.965 148.077C220.861 151.272 221.684 154.569 221.866 157.821C222.086 161.722 222.504 165.728 222.977 169.624C223.19 171.382 222.916 173.028 222.582 174.742C222.015 177.644 221.894 180.657 221.566 183.621C221.408 185.048 221.299 186.495 220.988 187.883C220.45 190.296 199.277 183.835 219.146 189.508C219.871 189.715 220.149 190.034 219.993 190.848C219.339 194.242 217.598 196.955 215.234 199.303C213.004 201.593 210.623 204.035 207.442 204.948Z" fill="#029444"/>
<path d="M194.011 326.255C194.847 322.718 197.425 322.054 199.187 319.512C200.661 317.388 202.967 317.792 205.055 317.688C209.536 317.464 211.441 322.596 213.715 325.368C218.977 331.784 222.891 325.075 217.615 321.11C214.422 318.711 208.651 315.831 208.816 311.308C208.866 309.937 209.252 308.614 210.498 307.855C212.464 306.656 214.258 305.11 216.646 304.651C220.052 303.996 223.38 303.684 226.534 305.459C227.534 306.021 228.861 306.064 229.886 306.598C237.395 310.503 243.138 318.913 245.936 326.403C247.424 330.385 248.797 334.414 250.065 338.472C250.598 340.184 250.327 342.021 250.635 343.77C251.034 346.089 251.882 350.717 251.882 350.717C251.882 350.717 252.859 353.722 253.289 355.241C253.818 357.109 254.28 359.046 254.711 360.94C255.006 362.241 257.126 367.126 254.521 367.182C248.691 367.304 243.028 366.372 237.466 365.02C234.242 364.236 230.964 363.34 228.039 361.907C224.53 360.189 220.833 358.591 217.204 357.096C215.567 356.421 214.266 355.376 212.935 354.245C210.682 352.331 208.114 350.749 205.691 349.012C204.523 348.176 203.315 347.372 202.258 346.421C200.417 344.771 216.417 329.473 201.743 344.02C201.207 344.55 200.793 344.636 200.159 344.102C197.521 341.87 196.007 339.024 195.117 335.813C194.212 332.747 193.249 329.475 194.011 326.255Z" fill="#029444"/>
</svg>
